#!OML:ASF H:\Terrain\Walking\May29\JustinRory\Justin.ASF
:FULLY-SPECIFIED
:DEGREES
131
root 12.1029 17.5326 2.80315 126.911 -82.7833 -120.165
lowerback 13.552 0.123568 3.12815
upperback 4.16159 0.47068 5.99931
thorax -3.22842 0.0635933 4.47757
lowerneck 5.27986 -19.3005 -13.9338
upperneck 4.38034 -27.5444 16.5426
head 4.69168 -13.7851 5.44298
rclavicle 1.51076e-014 4.92986e-014
rhumerus -1.51521 -66.6366 -33.7054
rradius 35.3583
rwrist -42.5639
rhand -14.1136 16.0424
rfingers 7.12502
rthumb 12.0196 -13.5925
lclavicle 1.51076e-014 4.92986e-014
lhumerus -32.0994 3.65205 79.9471
lradius 43.9374
lwrist -3.74428
lhand 4.015 31.207
lfingers 7.12502
lthumb 29.43 58.896
rfemur -16.9838 -2.66183 13.7072
rtibia 19.8757
rfoot -3.12127 -8.85967
rtoes -24.0758
lfemur -19.8349 3.4118 -9.88542
ltibia 50.6776
lfoot -19.4023 10.5065
ltoes -1.80601
132
root 12.0927 17.5218 2.84323 122.735 -82.6945 -115.76
lowerback 13.4964 -0.00499351 3.25231
upperback 4.18209 0.309093 6.17162
thorax -3.16679 -0.021288 4.61688
lowerneck 5.48482 -19.192 -14.2513
upperneck 4.28895 -27.4258 16.6735
head 4.67591 -13.7418 5.55201
rclavicle 6.36111e-015 4.77083e-015
rhumerus -2.70947 -66.8769 -32.8378
rradius 36.0561
rwrist -42.8918
rhand -13.8876 15.5157
rfingers 7.12502
rthumb 12.2375 -14.1063
lclavicle 6.36111e-015 4.77083e-015
lhumerus -32.6011 4.49782 79.5107
lradius 43.5351
lwrist -3.67949
lhand 3.06852 31.8266
lfingers 7.12502
lthumb 28.526 59.6709
rfemur -17.1065 -2.72826 13.9263
rtibia 19.9556
rfoot -3.19837 -9.22672
rtoes -24.2566
lfemur -20.5467 4.02913 -9.83811
ltibia 51.0807
lfoot -19.7853 10.0259
ltoes -3.02311
133
root 12.0762 17.5073 2.88709 117.637 -82.6181 -110.563
lowerback 13.5742 -0.793277 2.65746
upperback 4.1156 -0.809794 7.02293
thorax -3.19096 -0.596709 6.06248
lowerneck 5.87859 -18.2012 -16.8301
upperneck 4.61378 -26.3176 16.945
head 4.9163 -13.2423 6.07989
rclavicle -1.55052e-014 -1.43125e-014
rhumerus 2.79865 -65.4615 -37.1282
rradius 35.4794
rwrist -42.2808
rhand -13.5594 14.9967
rfingers 7.12502
rthumb 12.5539 -14.6061
lclavicle -1.55052e-014 -1.43125e-014
lhumerus -34.2637 8.26498 79.1999
lradius 43.2311
lwrist -4.08636
lhand 2.12812 32.0816
lfingers 7.12502
lthumb 27.6271 60.0732
rfemur -17.0684 -3.26336 14.1802
rtibia 20.0724
rfoot -3.21198 -9.21312
rtoes -25.6657
lfemur -21.0924 4.43772 -9.80601
ltibia 51.4448
lfoot -20.0119 9.50547
ltoes -4.60577
134
root 12.0613 17.4918 2.92754 113.827 -82.6707 -106.686
lowerback 13.5605 -0.240244 3.3153
upperback 4.29464 -0.00416598 6.36614
thorax -3.06361 -0.184172 4.84034
lowerneck 6.07632 -18.9943 -14.7787
upperneck 4.05588 -27.2555 17.1552
head 4.62815 -13.6972 5.83262
rclavicle 3.97569e-015 -3.97569e-014
rhumerus -3.68131 -67.5623 -31.3343
rradius 35.8557
rwrist -42.3692
rhand -13.1698 14.2813
rfingers 7.12502
rthumb 12.9295 -15.2982
lclavicle 3.97569e-015 -3.97569e-014
lhumerus -33.7215 6.02793 78.8641
lradius 42.8502
lwrist -3.43339
lhand 1.36659 32.8627
lfingers 7.12502
lthumb 26.8987 60.9687
rfemur -17.0174 -3.807 14.2109
rtibia 20.1507
rfoot -3.24027 -9.13612
rtoes -26.7916
lfemur -21.5457 4.78347 -10.0242
ltibia 51.761
lfoot -20.0431 9.15869
ltoes -6.3176
135
root 12.0522 17.4781 2.9657 110.667 -82.7495 -103.391
lowerback 13.5911 0.0626462 3.53361
upperback 4.42474 0.416862 5.94494
thorax -2.96424 0.0330388 4.19508
lowerneck 6.04594 -19.5312 -13.3584
upperneck 3.70306 -27.8485 17.1791
head 4.42991 -13.9819 5.6288
rclavicle 2.78299e-015 3.49861e-014
rhumerus -9.70084 -68.7093 -26.1503
rradius 36.4543
rwrist -42.9713
rhand -12.6819 13.7297
rfingers 7.12502
rthumb 13.3998 -15.8194
lclavicle 2.78299e-015 3.49861e-014
lhumerus -33.5562 4.98132 78.3772
lradius 42.6519
lwrist -2.88431
lhand 0.96633 33.5231
lfingers 7.12502
lthumb 26.5156 61.6876
rfemur -17.0666 -4.0276 14.1269
rtibia 20.2059
rfoot -3.28563 -9.32664
rtoes -26.6406
lfemur -22.1097 5.29854 -10.3169
ltibia 52.054
lfoot -20.0895 8.8281
ltoes -7.88077
136
root 12.0467 17.4637 3.00768 106.923 -82.9255 -99.5913
lowerback 13.8069 -0.12847 3.16885
upperback 4.43408 0.13215 6.00365
thorax -3.05969 -0.1096 4.51512
lowerneck 6.16389 -19.4011 -13.9531
upperneck 3.80712 -27.7504 17.3821
head 4.53955 -13.9414 5.76033
rclavicle -9.93923e-015 -5.00937e-014
rhumerus -9.83962 -68.0612 -25.6524
rradius 36.4014
rwrist -44.062
rhand -12.8811 13.2456
rfingers 7.12502
rthumb 13.2078 -16.316
lclavicle -9.93923e-015 -5.00937e-014
lhumerus -34.1935 6.12982 77.8623
lradius 42.3922
lwrist -2.83334
lhand 0.800347 33.8953
lfingers 7.12502
lthumb 26.3567 62.0836
rfemur -17.0036 -4.30001 13.892
rtibia 20.2231
rfoot -3.28936 -9.63417
rtoes -26.1004
lfemur -22.6283 5.80192 -10.7215
ltibia 52.3668
lfoot -20.2771 8.33723
ltoes -7.78629
137
root 12.0376 17.4533 3.05536 102.218 -83.0048 -94.9101
lowerback 14.0151 -0.545561 2.34388
upperback 4.50043 -0.525662 6.57826
thorax -3.05185 -0.452051 5.71886
lowerneck 6.17976 -18.9084 -15.6459
upperneck 4.08183 -27.2146 17.4717
head 4.77697 -13.6873 6.01687
rclavicle 1.90833e-014 1.19271e-014
rhumerus -7.11236 -67.5508 -27.2905
rradius 35.9781
rwrist -44.3137
rhand -12.6057 12.8217
rfingers 7.12502
rthumb 13.4733 -16.7225
lclavicle 1.90833e-014 1.19271e-014
lhumerus -35.1589 8.51679 77.6907
lradius 42.046
lwrist -2.84273
lhand 0.524006 34.2438
lfingers 7.12502
lthumb 26.0922 62.4715
rfemur -16.7243 -4.52642 13.6992
rtibia 20.1507
rfoot -3.37676 -10.0471
rtoes -26.2269
lfemur -23.0473 6.26698 -11.0912
ltibia 52.7592
lfoot -20.5113 8.01467
ltoes -8.2441
138
root 12.0242 17.4411 3.10167 97.0727 -82.5993 -89.6298
lowerback 14.184 -0.745318 2.40561
upperback 4.44335 -0.767857 6.85697
thorax -3.17876 -0.577928 6.03391
lowerneck 6.15042 -18.8245 -16.0174
upperneck 4.30191 -27.1163 17.2337
head 4.84674 -13.6376 5.9913
rclavicle 1.98785e-015 4.69132e-014
rhumerus -9.48374 -66.0469 -24.893
rradius 36.3999
rwrist -45.9389
rhand -12.3812 12.1466
rfingers 7.12502
rthumb 13.6897 -17.3831
lclavicle 1.98785e-015 4.69132e-014
lhumerus -35.8405 9.48663 77.2694
lradius 41.5122
lwrist -2.66529
lhand 0.24694 34.3676
lfingers 7.12502
lthumb 25.8269 62.6342
rfemur -16.4697 -4.56204 13.9914
rtibia 19.8752
rfoot -3.41302 -10.5474
rtoes -26.4897
lfemur -23.7157 6.75271 -10.9887
ltibia 53.3429
lfoot -20.7861 8.00012
ltoes -9.86807
139
root 12.0187 17.42 3.16017 93.4367 -81.659 -85.5305
lowerback 13.9321 -0.766611 3.38886
upperback 4.42748 -0.682834 6.88515
thorax -3.07438 -0.537775 5.47787
lowerneck 6.1896 -19.0092 -15.3999
upperneck 4.10276 -27.2929 17.1655
head 4.71595 -13.7244 5.89783
rclavicle -5.1684e-015 7.79236e-014
rhumerus -12.1448 -65.9791 -22.2825
rradius 36.2792
rwrist -46.7606
rhand -12.1954 11.6959
rfingers 7.12502
rthumb 13.8687 -17.8217
lclavicle -5.1684e-015 7.79236e-014
lhumerus -35.99 9.69229 76.6291
lradius 40.9656
lwrist -2.65276
lhand 0.194233 34.5724
lfingers 7.12502
lthumb 25.7764 62.8463
rfemur -16.5959 -4.75683 14.8411
rtibia 19.4831
rfoot -3.23533 -10.8487
rtoes -26.5647
lfemur -24.8529 7.31628 -10.3996
ltibia 54.0672
lfoot -20.9913 8.11375
ltoes -10.2636
140
root 12.0248 17.3932 3.2207 92.8627 -79.9048 -84.3186
lowerback 13.7293 -0.601495 5.45212
upperback 4.23875 -0.198147 6.91953
thorax -3.19422 -0.301698 4.26151
lowerneck 6.61953 -19.2574 -14.9103
upperneck 3.77718 -27.6379 17.5087
head 4.59062 -13.9182 5.95203
rclavicle 6.75868e-015 2.06736e-014
rhumerus -18.5016 -64.6812 -17.0516
rradius 37.3603
rwrist -48.8707
rhand -11.9265 11.1993
rfingers 7.12502
rthumb 14.1278 -18.3004
lclavicle 6.75868e-015 2.06736e-014
lhumerus -36.1146 9.2035 75.9719
lradius 40.4798
lwrist -2.75644
lhand 0.0278343 35.1308
lfingers 7.12502
lthumb 25.617 63.4278
rfemur -17.1788 -4.42502 16.5776
rtibia 19.3477
rfoot -3.20656 -11.375
rtoes -26.2851
lfemur -26.2422 8.31882 -8.94837
ltibia 54.8132
lfoot -21.1972 8.18795
ltoes -10.1995
141
root 12.0141 17.3702 3.24696 91.7655 -79.0236 -83.2989
lowerback 13.7242 -0.581216 5.30446
upperback 4.54317 -0.244538 7.43013
thorax -2.86224 -0.343752 4.89761
lowerneck 6.43282 -19.2308 -15.0395
upperneck 3.61731 -27.5441 17.4685
head 4.5678 -13.8662 5.9527
rclavicle -2.14687e-014 5.56597e-015
rhumerus -16.2727 -66.3034 -17.5849
rradius 35.5182
rwrist -47.3798
rhand -11.3462 11.0123
rfingers 7.12502
rthumb 14.6869 -18.4475
lclavicle -2.14687e-014 5.56597e-015
lhumerus -36.3975 10.3551 75.6474
lradius 40.0307
lwrist -3.02538
lhand -0.227006 35.7472
lfingers 7.12502
lthumb 25.3729 64.079
rfemur -16.9715 -3.84992 17.3348
rtibia 19.315
rfoot -3.40305 -12.0792
rtoes -25.3285
lfemur -26.6743 9.18606 -8.28527
ltibia 55.4313
lfoot -21.606 8.04927
ltoes -9.28394
142
root 12.0006 17.361 3.3236 86.397 -80.7575 -77.9944
lowerback 13.882 -0.746931 3.5217
upperback 4.6354 -0.665347 6.90455
thorax -2.82911 -0.533642 5.41334
lowerneck 6.3818 -19.1792 -15.2904
upperneck 3.72745 -27.5142 17.6395
head 4.66444 -13.8482 6.01634
rclavicle 2.3059e-014 -3.73715e-014
rhumerus -16.5356 -66.8202 -16.4224
rradius 34.4046
rwrist -46.874
rhand -10.6857 10.6343
rfingers 7.12502
rthumb 15.3233 -18.778
lclavicle 2.3059e-014 -3.73715e-014
lhumerus -36.7557 11.1956 75.0678
lradius 39.4654
lwrist -3.44125
lhand -0.148626 36.0193
lfingers 7.12502
lthumb 25.448 64.3404
rfemur -16.5882 -5.49682 15.099
rtibia 19.2654
rfoot -3.43282 -11.2672
rtoes -25.1683
lfemur -26.9225 8.92498 -10.9101
ltibia 55.7958
lfoot -22.2099 8.54303
ltoes -6.36483
143
root 11.9807 17.3481 3.36791 82.9327 -80.7698 -74.717
lowerback 14.1429 -0.782428 3.20804
upperback 4.72234 -0.74072 6.77025
thorax -2.87266 -0.569451 5.46648
lowerneck 6.54256 -19.1651 -15.6084
upperneck 3.88458 -27.5834 17.8868
head 4.77921 -13.8897 6.11376
rclavicle 1.15295e-014 -1.51076e-014
rhumerus -18.6829 -66.4043 -14.0671
rradius 33.9188
rwrist -47.2237
rhand -10.0628 10.2299
rfingers 7.12502
rthumb 15.9232 -19.1355
lclavicle 1.15295e-014 -1.51076e-014
lhumerus -37.0667 11.645 74.4362
lradius 38.8008
lwrist -3.78728
lhand -0.184449 35.9998
lfingers 7.12502
lthumb 25.4137 64.3258
rfemur -16.2389 -5.66779 14.7514
rtibia 19.4781
rfoot -3.78533 -11.527
rtoes -25.0029
lfemur -27.0475 9.35892 -11.4451
ltibia 56.0481
lfoot -22.5484 8.96042
ltoes -5.192
